<svg width="24" height="24" viewBox="0 0 24 24" fill="none" xmlns="http://www.w3.org/2000/svg">
<path d="M11 23C11 23.552 10.552 24 10 24H5C2.243 24 0 21.757 0 19V5C0 2.243 2.243 0 5 0H13C15.757 0 18 2.243 18 5V18C18 18.552 17.553 19 17 19C16.447 19 16 18.552 16 18V5C16 3.346 14.654 2 13 2H5C3.346 2 2 3.346 2 5V19C2 20.654 3.346 22 5 22H10C10.552 22 11 22.448 11 23ZM13 5H5C4.448 5 4 5.448 4 6C4 6.552 4.448 7 5 7H13C13.553 7 14 6.552 14 6C14 5.448 13.553 5 13 5ZM13 10H5C4.448 10 4 10.448 4 11C4 11.552 4.448 12 5 12H13C13.553 12 14 11.552 14 11C14 10.448 13.553 10 13 10ZM10 15H5C4.448 15 4 15.448 4 16C4 16.552 4.448 17 5 17H10C10.552 17 11 16.552 11 16C11 15.448 10.552 15 10 15ZM23.695 16.282C23.299 15.898 22.666 15.908 22.281 16.304L17.174 21.58C16.629 22.148 15.646 22.133 15.118 21.55L12.727 19.015C12.349 18.613 11.715 18.595 11.313 18.973C10.911 19.351 10.893 19.985 11.271 20.387L13.662 22.922C14.934 24.324 17.283 24.356 18.599 22.983L23.718 17.695C24.102 17.298 24.092 16.666 23.695 16.282Z" fill="#28D5AA"/>
</svg>
