<svg width="20" height="20" viewBox="0 0 20 20" fill="none" xmlns="http://www.w3.org/2000/svg">
<g clip-path="url(#clip0_597_5263)">
<path d="M18.7036 9.99003C18.0727 9.99562 17.5427 10.4655 17.4615 11.0911C16.8605 15.1973 13.0446 18.0388 8.93844 17.4378C4.83227 16.8368 1.99075 13.0209 2.59174 8.91475C3.19272 4.80858 7.00864 1.96706 11.1148 2.56805C12.5145 2.7729 13.8279 3.36868 14.904 4.2869L13.9614 5.22951C13.6357 5.5553 13.6357 6.08348 13.9615 6.40919C14.1185 6.56614 14.3316 6.65404 14.5536 6.65341H18.3791C18.8398 6.65341 19.2132 6.27996 19.2132 5.81927V1.99381C19.2131 1.53312 18.8396 1.15974 18.3789 1.15982C18.1577 1.15986 17.9457 1.24772 17.7893 1.40405L16.6782 2.51514C12.5445 -1.14723 6.22443 -0.765129 2.56202 3.36864C-1.10039 7.50242 -0.718213 13.8225 3.41552 17.4849C7.54926 21.1473 13.8693 20.7651 17.5317 16.6314C18.8209 15.1762 19.6581 13.3767 19.9406 11.4532C20.0512 10.7645 19.5826 10.1166 18.8939 10.006C18.831 9.99586 18.7673 9.99054 18.7036 9.99003Z" fill="#10D0A1"/>
</g>
<defs>
<clipPath id="clip0_597_5263">
<rect width="20" height="20" fill="white"/>
</clipPath>
</defs>
</svg>
