<svg width="55" height="54" viewBox="0 0 55 54" fill="none" xmlns="http://www.w3.org/2000/svg">
<path d="M1.60156 15C1.60156 7.54416 7.64572 1.5 15.1016 1.5H39.1015C46.5574 1.5 52.6015 7.54416 52.6015 15V39C52.6015 46.4558 46.5574 52.5 39.1015 52.5H15.1016C7.64571 52.5 1.60156 46.4558 1.60156 39V15Z" fill="#10D0A1" stroke="white" stroke-width="3"/>
<path d="M28.8182 13.7347V11H26.1818V13.7347C18.8026 14.4107 13 20.696 13 28.3333C13 36.42 19.5052 43 27.5 43C35.4948 43 42 36.42 42 28.3333C42 20.696 36.1973 14.4107 28.8182 13.7347ZM28.8182 40.2547V37.6667H26.1818V40.2547C20.6916 39.6373 16.3245 35.22 15.7141 29.6667H18.2727V27H15.7141C16.3245 21.448 20.6916 17.0293 26.1818 16.412V19H28.8182V16.412C34.3084 17.0293 38.6755 21.448 39.2858 27H36.7273V29.6667H39.2858C38.6755 35.22 34.3084 39.6373 28.8182 40.2547ZM20.3278 21.0787L24.1795 31.6187L34.6986 35.6133L30.748 24.9747L20.3278 21.0787ZM26.2332 29.5507L24.7859 25.588L28.7035 27.052L30.1878 31.052L26.2332 29.5493V29.5507Z" fill="white"/>
</svg>
