<svg width="44" height="44" viewBox="0 0 44 44" fill="none" xmlns="http://www.w3.org/2000/svg">
<rect width="44" height="44" rx="22" fill="#10D0A1"/>
<g clip-path="url(#clip0_141_5206)">
<path d="M13 21.1667V17C13 14.2433 15.2433 12 18 12C20.7567 12 23 14.2433 23 17V21.1667H13ZM13 22.8333V27C13 29.7567 15.2433 32 18 32C20.7567 32 23 29.7567 23 27V22.8333H13ZM24.6667 17V21.905L29.6025 19.27L27.6042 15.5267C26.7042 13.8408 24.985 12.87 23.1983 12.8367C24.115 13.9783 24.6667 15.425 24.6667 17ZM32.4008 24.5108L30.4025 20.7675L24.6667 23.8292V27C24.6667 28.1042 24.3925 29.1433 23.9158 30.0617C25.4133 31.9592 28.1017 32.5783 30.3075 31.4008C32.7842 30.0783 33.7225 26.9875 32.4008 24.5108Z" fill="white"/>
</g>
<defs>
<clipPath id="clip0_141_5206">
<rect width="20" height="20" fill="white" transform="translate(13 12)"/>
</clipPath>
</defs>
</svg>
