<svg width="36" height="52" viewBox="0 0 36 52" fill="none" xmlns="http://www.w3.org/2000/svg">
<path d="M24.7806 2.37863L24.7805 2.37866L24.7724 2.37504C22.712 1.45831 20.5192 0.998318 18.1838 0.998318C15.8483 0.998318 13.6556 1.45831 11.5952 2.37504L11.5952 2.37507L11.587 2.37863C9.54809 3.26412 7.77111 4.47311 6.24837 6.00658C4.73163 7.53402 3.53718 9.35227 2.66752 11.4728L2.66503 11.4787C1.80228 13.5441 1.36719 15.7694 1.36719 18.1648C1.36719 21.3948 2.25364 24.9255 4.08039 28.7697L4.08043 28.7696L4.08392 28.7772C5.89796 32.6775 7.9068 36.2914 10.1094 39.6201C12.3281 42.973 14.3393 45.7462 16.1436 47.9463L18.1838 50.3807L20.224 47.9463C22.0283 45.7462 24.0395 42.973 26.2581 39.6201C28.4608 36.2914 30.4696 32.6775 32.2837 28.7772L32.2836 28.7771L32.2872 28.7697C34.1139 24.9255 35.0004 21.3948 35.0004 18.1648C35.0004 15.7694 34.5653 13.5441 33.7025 11.4788L33.7001 11.4728C32.8304 9.35226 31.6359 7.53402 30.1192 6.00658C28.5965 4.47311 26.8195 3.26412 24.7806 2.37863ZM23.3463 23.4428C21.911 24.883 20.1745 25.6268 18.1838 25.6268C16.1596 25.6268 14.4081 24.8874 12.9858 23.4371C11.5641 21.9876 10.8463 20.211 10.8463 18.1648C10.8463 16.1479 11.5821 14.3847 13.0157 12.923C14.4496 11.461 16.1877 10.7029 18.1838 10.7029C20.2133 10.7029 21.9664 11.4565 23.3874 12.9287C24.7992 14.3916 25.5212 16.153 25.5212 18.1648C25.5212 20.2161 24.7897 21.9944 23.3463 23.4428Z" fill="#10D0A1" stroke="white" stroke-width="2"/>
</svg>
