<svg width="55" height="54" viewBox="0 0 55 54" fill="none" xmlns="http://www.w3.org/2000/svg">
<path d="M1.51562 15C1.51562 7.54416 7.55978 1.5 15.0156 1.5H39.0156C46.4714 1.5 52.5156 7.54416 52.5156 15V39C52.5156 46.4558 46.4714 52.5 39.0156 52.5H15.0156C7.55977 52.5 1.51562 46.4558 1.51562 39V15Z" fill="#10D0A1" stroke="white" stroke-width="3"/>
<path d="M25.44 13.5991C25.868 13.2134 26.4235 13 26.9994 13C27.5752 13 28.1307 13.2134 28.5587 13.5991L40.9844 24.7951V36.9291C40.9844 37.9193 40.5915 38.8689 39.8921 39.5691C39.1927 40.2693 38.2441 40.6626 37.255 40.6626H16.7437C15.7546 40.6626 14.806 40.2693 14.1066 39.5691C13.4072 38.8689 13.0143 37.9193 13.0143 36.9291V24.7951L25.44 13.5991ZM23.5031 38.3256H30.4956V32.4616C30.4956 31.5333 30.1273 30.643 29.4716 29.9866C28.8159 29.3302 27.9266 28.9615 26.9994 28.9615C26.0721 28.9615 25.1828 29.3302 24.5271 29.9866C23.8714 30.643 23.5031 31.5333 23.5031 32.4616V38.3256ZM15.3452 36.9256C15.3452 37.2969 15.4925 37.653 15.7548 37.9156C16.017 38.1781 16.3728 38.3256 16.7437 38.3256H21.1723V32.4616C21.1723 30.9145 21.7862 29.4307 22.879 28.3366C23.9718 27.2426 25.4539 26.628 26.9994 26.628C28.5448 26.628 30.0269 27.2426 31.1197 28.3366C32.2125 29.4307 32.8264 30.9145 32.8264 32.4616V38.3256H37.255C37.6259 38.3256 37.9817 38.1781 38.2439 37.9156C38.5062 37.653 38.6535 37.2969 38.6535 36.9256V25.8334L26.9994 15.3329L15.3452 25.8334V36.9256Z" fill="white"/>
</svg>
