<svg width="26" height="26" viewBox="0 0 26 26" fill="none" xmlns="http://www.w3.org/2000/svg">
<path d="M24.7281 23.2552L18.5104 17.0375C20.2048 14.9652 21.0379 12.3209 20.8373 9.65164C20.6368 6.98233 19.4179 4.49223 17.4329 2.69638C15.4479 0.900541 12.8485 -0.063645 10.1726 0.00326312C7.49656 0.0701713 4.94866 1.16305 3.05586 3.05586C1.16305 4.94866 0.0701713 7.49656 0.00326312 10.1726C-0.063645 12.8485 0.900541 15.4479 2.69638 17.4329C4.49223 19.4179 6.98233 20.6368 9.65164 20.8373C12.3209 21.0379 14.9652 20.2048 17.0375 18.5104L23.2552 24.7281C23.4517 24.9179 23.7148 25.0229 23.9879 25.0205C24.261 25.0181 24.5223 24.9086 24.7154 24.7154C24.9086 24.5223 25.0181 24.261 25.0205 23.9879C25.0229 23.7148 24.9179 23.4517 24.7281 23.2552ZM10.45 18.7833C8.80183 18.7833 7.19067 18.2946 5.82026 17.3789C4.44985 16.4632 3.38174 15.1618 2.75101 13.639C2.12028 12.1163 1.95525 10.4408 2.2768 8.82426C2.59834 7.20775 3.39201 5.72289 4.55745 4.55745C5.72289 3.39201 7.20775 2.59834 8.82426 2.2768C10.4408 1.95525 12.1163 2.12028 13.639 2.75101C15.1618 3.38174 16.4632 4.44985 17.3789 5.82026C18.2946 7.19067 18.7833 8.80183 18.7833 10.45C18.7809 12.6594 17.9021 14.7776 16.3398 16.3398C14.7776 17.9021 12.6594 18.7809 10.45 18.7833Z" fill="#777777"/>
</svg>
